<?xml version="1.0" encoding="UTF-8" standalone="no"?>
<!-- Created with Inkscape (http://www.inkscape.org/) -->

<svg
   width="60.574593mm"
   height="43.250008mm"
   viewBox="0 0 60.574593 43.250011"
   version="1.1"
   id="svg1"
   xml:space="preserve"
   inkscape:version="1.3.2 (1:1.3.2+202404261509+091e20ef0f)"
   sodipodi:docname="site-logo.svg"
   xmlns:inkscape="http://www.inkscape.org/namespaces/inkscape"
   xmlns:sodipodi="http://sodipodi.sourceforge.net/DTD/sodipodi-0.dtd"
   xmlns="http://www.w3.org/2000/svg"
   xmlns:svg="http://www.w3.org/2000/svg"><sodipodi:namedview
     id="namedview1"
     pagecolor="#ffffff"
     bordercolor="#999999"
     borderopacity="1"
     inkscape:showpageshadow="2"
     inkscape:pageopacity="0"
     inkscape:pagecheckerboard="0"
     inkscape:deskcolor="#d1d1d1"
     inkscape:document-units="mm"
     showgrid="true"
     inkscape:zoom="2.8284272"
     inkscape:cx="339.94158"
     inkscape:cy="182.07999"
     inkscape:window-width="1920"
     inkscape:window-height="945"
     inkscape:window-x="0"
     inkscape:window-y="32"
     inkscape:window-maximized="1"
     inkscape:current-layer="g16"><inkscape:grid
       id="grid1"
       units="mm"
       originx="36.94986"
       originy="-119.03861"
       spacingx="0.99999998"
       spacingy="1"
       empcolor="#0099e5"
       empopacity="0.30196078"
       color="#0099e5"
       opacity="0.14901961"
       empspacing="5"
       dotted="true"
       gridanglex="30"
       gridanglez="30"
       visible="true"
       snapvisiblegridlinesonly="true" /><inkscape:grid
       id="grid2"
       units="mm"
       originx="36.94986"
       originy="-119.03861"
       spacingx="0.99999998"
       spacingy="1"
       empcolor="#0099e5"
       empopacity="0.30196078"
       color="#0099e5"
       opacity="0.14901961"
       empspacing="30"
       dotted="false"
       gridanglex="30"
       gridanglez="30"
       visible="true"
       snapvisiblegridlinesonly="true" /></sodipodi:namedview><defs
     id="defs1" /><g
     inkscape:groupmode="layer"
     id="g18"
     inkscape:label="MainLogoblack"
     transform="translate(48.29112,-119.03861)"><path
       d="m -21.341863,128.6633 v 4.03283 7.93957 h 0.0021 c -6.99e-4,0.009 -0.0014,0.0186 -0.0021,0.0279 0.0032,1.07096 0.149673,2.13671 0.435633,3.1688 0.789433,2.78903 2.561751,5.19814 4.989359,6.78201 0.937219,0.62646 1.958062,1.11775 3.032373,1.45934 1.144679,0.37334 2.339047,0.57229 3.5429372,0.59015 6.627569,6e-5 12.000365,-5.37273 12.000301,-12.0003 -0.01786,-1.20389 -0.216808,-2.39826 -0.590145,-3.54294 -0.341598,-1.07432 -0.832879,-2.09515 -1.459343,-3.03237 -1.583793,-2.42783 -3.992875,-4.20031 -6.782015,-4.98988 -1.032105,-0.28578 -2.097861,-0.43213 -3.168798,-0.43511 h -7.9674732 z m 12.0003022,3.95015 c 2.989236,9.8e-4 5.728574,1.66842 7.102408,4.32325 0.575377,1.11309 0.881251,2.34579 0.892969,3.59874 0.0017,0.026 0.0032,0.052 0.0047,0.078 1.6e-5,4.41828 -3.581755,8.00005 -8.000028,8.00003 -0.02379,-0.004 -0.04756,-0.007 -0.07131,-0.0114 -1.2362272,-0.0417 -2.4459792,-0.36945 -3.5341512,-0.95756 -2.659843,-1.34249 -4.353307,-4.05195 -4.394564,-7.0311 0.01814,-0.13748 0.03985,-0.27447 0.06511,-0.41083 0.234789,-4.05415 3.469931,-7.2893 7.5240892,-7.52408 0.136355,-0.0253 0.273344,-0.047 0.410828,-0.0651 z"
       style="fill:#303030;fill-opacity:1;stroke-width:0.277461"
       id="path20" /><path
       d="m -30.966081,119.03908 v 21.5744 h 0.0036 c -0.0012,0.0167 -0.0024,0.0334 -0.0036,0.0501 0.03179,0.50438 0.08126,1.00752 0.148311,1.50843 0.225116,3.13097 1.129235,6.17556 2.649451,8.92194 1.364726,2.45739 3.195555,4.62524 5.389852,6.38204 0.554273,0.44547 1.137122,0.85223 1.732194,1.24075 -19.99601,0.32416 -22.219589,0.88068 -22.290629,-6.54689 h 7.915279 v -4.06073 h -7.924581 v -5.14129 h 8.514209 v -4.06074 h -13.459127 v 23.38152 h 13.459127 25.4904342 c 0.01691,-2e-5 0.03373,-0.001 0.05064,-0.002 3.001432,-0.01 5.968397,-0.64251 8.711613,-1.86139 4.904091,-2.17518 8.824665,-6.09575 10.9998458,-10.99984 1.225746,-2.75867 1.860355,-5.74353 1.862935,-8.76226 -0.03254,-3.791 -1.061203,-7.50697 -2.9827638,-10.77505 -0.542735,-0.93165 -1.154407,-1.82144 -1.829862,-2.66185 -1.756809,-2.19432 -3.924624,-4.02512 -6.382039,-5.38986 -2.746415,-1.52023 -5.790925,-2.42433 -8.921936,-2.64945 -0.500916,-0.0671 -1.004055,-0.11651 -1.508435,-0.14831 z m 3.674711,3.67471 h 15.931844 2.0179652 c 2.693232,4.5e-4 5.351881,0.60696 7.778853,1.77457 2.541684,1.23702 4.755328,3.05687 6.460587,5.31131 0.660158,0.86504 1.240299,1.78836 1.733228,2.75848 1.286505,2.50899 1.963864,5.28588 1.97714,8.10545 4.4e-5,9.9133 -8.036515,17.94986 -17.949808,17.94981 -2.8195692,-0.0133 -5.5964562,-0.69063 -8.1054492,-1.97714 -0.970118,-0.49293 -1.893443,-1.07307 -2.758488,-1.73323 -2.254345,-1.70509 -4.074229,-3.9186 -5.311304,-6.46007 -1.167669,-2.42709 -1.774198,-5.086 -1.774568,-7.77937 0.001,-0.0139 0.0021,-0.0279 0.0031,-0.0419 h -0.0031 v -1.97611 z"
       style="fill:#303030;fill-opacity:1;stroke-width:3.14849"
       id="path21" /></g></svg>
