<?xml version="1.0" encoding="UTF-8" standalone="no"?>
<!-- Created with Inkscape (http://www.inkscape.org/) -->

<svg
   width="60.574406mm"
   height="43.249554mm"
   viewBox="0 0 60.574406 43.249557"
   version="1.1"
   id="svg1"
   xml:space="preserve"
   inkscape:version="1.3.2 (1:1.3.2+202404261509+091e20ef0f)"
   sodipodi:docname="site-logo.svg"
   inkscape:export-filename="2-logo.svg"
   inkscape:export-xdpi="96"
   inkscape:export-ydpi="96"
   xmlns:inkscape="http://www.inkscape.org/namespaces/inkscape"
   xmlns:sodipodi="http://sodipodi.sourceforge.net/DTD/sodipodi-0.dtd"
   xmlns="http://www.w3.org/2000/svg"
   xmlns:svg="http://www.w3.org/2000/svg"><sodipodi:namedview
     id="namedview1"
     pagecolor="#ffffff"
     bordercolor="#999999"
     borderopacity="1"
     inkscape:showpageshadow="2"
     inkscape:pageopacity="0"
     inkscape:pagecheckerboard="0"
     inkscape:deskcolor="#d1d1d1"
     inkscape:document-units="mm"
     showgrid="true"
     inkscape:zoom="2.0000001"
     inkscape:cx="107.25"
     inkscape:cy="116.5"
     inkscape:window-width="1920"
     inkscape:window-height="945"
     inkscape:window-x="0"
     inkscape:window-y="32"
     inkscape:window-maximized="1"
     inkscape:current-layer="g2"><inkscape:grid
       id="grid1"
       units="mm"
       originx="1.8799775e-15"
       originy="-0.13181508"
       spacingx="0.99999998"
       spacingy="1"
       empcolor="#0099e5"
       empopacity="0.30196078"
       color="#0099e5"
       opacity="0.14901961"
       empspacing="5"
       dotted="true"
       gridanglex="30"
       gridanglez="30"
       visible="true"
       snapvisiblegridlinesonly="true" /><inkscape:grid
       id="grid2"
       units="mm"
       originx="1.8799775e-15"
       originy="-0.13181508"
       spacingx="0.99999998"
       spacingy="1"
       empcolor="#0099e5"
       empopacity="0.30196078"
       color="#0099e5"
       opacity="0.14901961"
       empspacing="30"
       dotted="false"
       gridanglex="30"
       gridanglez="30"
       visible="true"
       snapvisiblegridlinesonly="true" /></sodipodi:namedview><defs
     id="defs1" /><g
     inkscape:groupmode="layer"
     id="layer1"
     inkscape:label="MainLogo"
     transform="translate(11.34126,-0.13181507)"
     style="display:inline"><g
       id="g2"
       transform="translate(2.3248508,0.13181506)"
       inkscape:export-filename="2-logo.svg"
       inkscape:export-xdpi="96"
       inkscape:export-ydpi="96"><path
         id="path1"
         style="display:inline;fill:#e1eef2;fill-opacity:1;stroke:none;stroke-width:0.499999"
         d="M 25.283259,43.249556 A 21.624895,21.624899 0 0 0 46.908296,21.624519 21.624895,21.624899 0 0 0 25.283259,0 H 3.6587402 v 21.574393 h 0.0036 a 21.624895,21.624899 0 0 0 -0.0036,0.05013 21.624895,21.624899 0 0 0 21.6245188,21.625033 z"
         inkscape:label="Base"
         inkscape:export-filename="new-logo.svg"
         inkscape:export-xdpi="96"
         inkscape:export-ydpi="96" /><g
         id="g14"
         clip-path="none"
         transform="rotate(180,23.454148,21.624778)"
         inkscape:export-filename="new-logo.svg"
         inkscape:export-xdpi="96"
         inkscape:export-ydpi="96"
         style="display:inline"><path
           d="M 29.730295,5.6524078 A 17.949724,17.949729 0 0 0 21.624846,3.6752675 17.949724,17.949729 0 0 0 3.6750375,21.625076 17.949724,17.949729 0 0 0 5.6521778,29.730525 Z"
           style="fill:#374f57;stroke-width:0.382856"
           id="path25" /><path
           d="M 13.845993,37.7998 37.800086,13.845706 C 36.562994,11.304196 34.743162,9.0907573 32.488783,7.3856354 31.623727,6.7254734 30.700425,6.1453398 29.730295,5.6524078 L 5.6521778,29.730525 c 0.4931239,0.969972 1.0734302,1.8931 1.7337443,2.757971 1.7051221,2.25438 3.9185609,4.074212 6.4600709,5.311304 z"
           style="fill:#47d0e5;stroke-width:0.423743"
           id="path24" /><path
           d="M 39.574655,39.574368 V 23.642524 21.666417 h -0.0031 c 0.001,-0.01378 0.0021,-0.02756 0.0031,-0.04134 -3.7e-4,-2.693415 -0.606879,-5.352234 -1.774569,-7.77937 L 13.845993,37.7998 c 2.426978,1.167614 5.085612,1.774121 7.778853,1.774568 h 2.018482 z"
           style="fill:#ffa012;stroke-width:0.598411"
           id="path23" /></g><path
         id="path3"
         style="fill:#e1eef2;fill-opacity:1;stroke:none;stroke-width:0.277461"
         d="M 25.283374,33.624895 A 12.000181,12.000184 0 0 0 37.283635,21.624633 12.000181,12.000184 0 0 0 25.283374,9.624662 H 13.283402 v 11.972155 h 0.002 a 12.000181,12.000184 0 0 0 -0.002,0.02782 12.000181,12.000184 0 0 0 11.999972,12.000262 z"
         inkscape:label="ColorErase" /><circle
         style="fill:#374f57;fill-opacity:1;stroke:none;stroke-width:0.799998"
         id="path4"
         cx="-25.283403"
         cy="-21.574406"
         r="8"
         inkscape:label="MiddleCircle"
         transform="scale(-1)" /></g><path
       id="rect2"
       style="fill:#e1eef2;stroke-width:3.14849"
       d="m -6.391746,33.111599 c 0.050486,8.888399 2.7216996,6.594622 34.050486,6.594624 v 3.67515 h -39 z"
       sodipodi:nodetypes="ccccc" /><path
       d="M -11.34126,19.999813 V 43.381331 H 2.1178668 l 0.5408734,-2.381333 -9.0550824,-1.711957 v -6.025472 h 7.9245809 v -4.060734 h -7.9245809 v -5.141288 h 8.514209 v -4.060734 z"
       style="font-weight:bold;font-size:32.747px;-inkscape-font-specification:'sans-serif Bold';fill:#e1eef2;stroke-width:4.95956"
       id="path6"
       sodipodi:nodetypes="ccccccccccccc"
       inkscape:export-filename="2-logo.svg"
       inkscape:export-xdpi="96"
       inkscape:export-ydpi="96"
       inkscape:label="path6" /></g></svg>
